<svg width="200" height="200" viewBox="0 0 200 200" fill="none" xmlns="http://www.w3.org/2000/svg">
<rect width="200" height="200" rx="100" fill="#005B96"/>
<g clip-path="url(#clip0_483_8163)">
<path d="M52.4999 95.0002V80.0002C53.8799 80.0002 55 78.8801 55 77.5001C55 76.1201 53.8799 75 52.4999 75C45.6051 75 40 80.61 40 87.5002V92.5001C40 96.6352 43.3649 100 47.5 100H52.4999C53.8799 100 55 98.88 55 97.5C55 96.12 53.8799 95.0002 52.4999 95.0002Z" fill="white"/>
<path d="M147.5 75C146.12 75 145 76.1201 145 77.5001C145 78.8801 146.12 80.0002 147.5 80.0002V95.0002C146.12 95.0002 145 96.1202 145 97.5002C145 98.8802 146.12 100 147.5 100H152.5C156.635 100 160 96.6352 160 92.5001V87.5002C160 80.61 154.395 75 147.5 75Z" fill="white"/>
<path d="M82.4999 145C81.1199 145 79.9998 146.12 79.9998 147.5H64.9999C64.9999 146.12 63.8798 145 62.4998 145C61.1198 145 59.9997 146.12 59.9997 147.5V152.5C59.9997 156.635 63.3646 160 67.4997 160H77.5C81.6351 160 85 156.635 85 152.5V147.5C85 146.12 83.8799 145 82.4999 145Z" fill="white"/>
<path d="M137.5 145C136.12 145 135 146.12 135 147.5H120C120 146.12 118.88 145 117.5 145C116.12 145 115 146.12 115 147.5V152.5C115 156.635 118.365 160 122.5 160H132.5C136.635 160 140 156.635 140 152.5V147.5C140 146.12 138.88 145 137.5 145Z" fill="white"/>
<path d="M137.5 40H62.5C55.6049 40 50.0001 45.61 50.0001 52.4999V137.5C50.0001 144.39 55.6051 150 62.5 150H137.5C144.395 150 150 144.39 150 137.5V52.4999C150 45.61 144.395 40 137.5 40ZM72.5001 50.0001H127.5C131.635 50.0001 135 53.365 135 57.5001C135 61.6352 131.635 65.0001 127.5 65.0001H72.5001C68.365 65.0001 65.0001 61.6352 65.0001 57.5001C65.0001 53.365 68.365 50.0001 72.5001 50.0001ZM72.5001 135C68.365 135 65.0001 131.635 65.0001 127.5C65.0001 123.365 68.365 120 72.5001 120C76.6351 120 80.0001 123.365 80.0001 127.5C80.0001 131.635 76.6349 135 72.5001 135ZM127.5 135C123.365 135 120 131.635 120 127.5C120 123.365 123.365 120 127.5 120C131.635 120 135 123.365 135 127.5C135 131.635 131.635 135 127.5 135ZM140 102.5C140 106.635 136.635 110 132.5 110H67.4999C63.3648 110 59.9999 106.635 59.9999 102.5V77.5C59.9999 73.3649 63.3648 70 67.4999 70H132.5C136.635 70 140 73.3649 140 77.5V102.5H140Z" fill="white"/>
</g>
<defs>
<clipPath id="clip0_483_8163">
<rect width="120" height="120" fill="white" transform="translate(40 40)"/>
</clipPath>
</defs>
</svg>
